HIERARCHY
ROOT Hips
{
	OFFSET -1.602300 6.242603 43.997101
	CHANNELS 6 Xposition Yposition Zposition Zrotation Xrotation Yrotation
	JOINT Chest
	{
		OFFSET -0.204900 1.598101 7.917301
		CHANNELS 6 Xposition Yposition Zposition Zrotation Xrotation Yrotation
		JOINT Chest2
		{
			OFFSET 0.000000 0.000000 3.404099
			CHANNELS 6 Xposition Yposition Zposition Zrotation Xrotation Yrotation
			JOINT Neck
			{
				OFFSET 0.000000 0.000000 7.928600
				CHANNELS 6 Xposition Yposition Zposition Zrotation Xrotation Yrotation
				JOINT Head
				{
					OFFSET 0.000000 0.000000 2.173897
					CHANNELS 6 Xposition Yposition Zposition Zrotation Xrotation Yrotation
					End Site
					{
						OFFSET 0.000000 0.000001 10.404503
					}
				}
			}
			JOINT LeftCollar
			{
				OFFSET 2.833800 -1.396299 4.843300
				CHANNELS 6 Xposition Yposition Zposition Zrotation Xrotation Yrotation
				JOINT LeftShoulder
				{
					OFFSET 4.363600 0.000000 0.000000
					CHANNELS 6 Xposition Yposition Zposition Zrotation Xrotation Yrotation
					JOINT LeftElbow
					{
						OFFSET 0.000000 -0.000001 -10.306900
						CHANNELS 6 Xposition Yposition Zposition Zrotation Xrotation Yrotation
						JOINT LeftWrist
						{
							OFFSET 0.000000 -0.000001 -12.404900
							CHANNELS 6 Xposition Yposition Zposition Zrotation Xrotation Yrotation
							End Site
							{
								OFFSET 0.000000 0.000000 -2.173901
							}
						}
					}
				}
			}
			JOINT RightCollar
			{
				OFFSET -2.354800 -1.897200 5.063099
				CHANNELS 6 Xposition Yposition Zposition Zrotation Xrotation Yrotation
				JOINT RightShoulder
				{
					OFFSET -4.375800 0.000000 0.000000
					CHANNELS 6 Xposition Yposition Zposition Zrotation Xrotation Yrotation
					JOINT RightElbow
					{
						OFFSET 0.000000 -0.000001 -10.005001
						CHANNELS 6 Xposition Yposition Zposition Zrotation Xrotation Yrotation
						JOINT RightWrist
						{
							OFFSET 0.000000 -0.000001 -13.174900
							CHANNELS 6 Xposition Yposition Zposition Zrotation Xrotation Yrotation
							End Site
							{
								OFFSET 0.000000 0.000000 -2.173901
							}
						}
					}
				}
			}
		}
	}
	JOINT LeftHip
	{
		OFFSET 2.240600 0.386800 -2.614101
		CHANNELS 6 Xposition Yposition Zposition Zrotation Xrotation Yrotation
		JOINT LeftKnee
		{
			OFFSET 0.000000 -0.000001 -18.592899
			CHANNELS 6 Xposition Yposition Zposition Zrotation Xrotation Yrotation
			JOINT LeftAnkle
			{
				OFFSET 0.000000 -0.000001 -18.765800
				CHANNELS 6 Xposition Yposition Zposition Zrotation Xrotation Yrotation
				End Site
				{
					OFFSET 0.000000 -8.655000 0.000000
				}
			}
		}
	}
	JOINT RightHip
	{
		OFFSET -2.014900 -0.220900 -2.615898
		CHANNELS 6 Xposition Yposition Zposition Zrotation Xrotation Yrotation
		JOINT RightKnee
		{
			OFFSET 0.000000 -0.000001 -18.633900
			CHANNELS 6 Xposition Yposition Zposition Zrotation Xrotation Yrotation
			JOINT RightAnkle
			{
				OFFSET 0.000000 -0.000001 -18.285101
				CHANNELS 6 Xposition Yposition Zposition Zrotation Xrotation Yrotation
				End Site
				{
					OFFSET 0.000000 -7.524500 0.000000
				}
			}
		}
	}
}
MOTION
Frames: 4
Frame Time: 0.041667
5.251799 7.941805 42.481911 6.219142 -2.097890 -2.208111 -0.204901 1.598099 7.917314 -6.090262 1.084174 0.828949 0.000001 -0.000001 3.404102 0.753402 -0.898979 -0.121574 0.000001 0.000000 7.928595 2.989187 4.697228 1.621780 0.000001 0.000001 2.173909 -0.878362 -0.472248 -0.372971 2.833801 -1.396301 4.843299 -4.304141 5.237103 3.665626 4.363596 0.000003 -0.000003 -53.458275 -20.426630 -58.409380 0.000001 0.000006 -10.306902 -161.377139 -121.259804 -143.260349 -0.000002 0.000000 -12.404915 -86.845213 162.516606 -83.404765 -2.354800 -1.897201 5.063096 17.781448 7.630616 5.413908 -4.375798 0.000005 0.000009 43.877077 -15.698145 41.174013 -0.000013 0.000008 -10.004992 -20.188391 -25.508407 -35.680570 -0.000005 -0.000004 -13.174896 -11.037457 -4.127534 -6.740939 2.240599 0.386802 -2.614090 0.170443 -6.695823 -1.596951 -0.000001 -0.000000 -18.592901 5.825507 30.267130 14.116478 -0.000001 -0.000002 -18.765800 5.266382 4.371799 -1.804006 -2.014899 -0.220900 -2.615891 -40.091038 -29.911355 -15.165042 -0.000005 0.000005 -18.633892 98.273267 59.548806 -59.317659 0.000003 0.000001 -18.285103 -25.143241 24.634233 -7.877232
5.247900 7.949806 42.479401 6.229417 -2.030713 -2.219422 -0.204901 1.598100 7.917310 -6.096963 1.007304 0.826526 0.000001 0.000000 3.404104 0.744691 -0.903461 -0.121652 0.000000 -0.000003 7.928599 3.037125 4.746425 1.586349 0.000000 0.000001 2.173899 -0.899927 -0.462651 -0.363899 2.833801 -1.396305 4.843307 -4.326948 5.252049 3.726127 4.363599 0.000003 0.000005 -53.474309 -20.360184 -58.454275 -0.000001 0.000007 -10.306896 -161.404514 -121.269831 -143.311275 -0.000000 0.000009 -12.404904 -86.783441 162.513710 -83.434729 -2.354800 -1.897205 5.063108 17.828081 7.663276 5.399523 -4.375798 0.000005 -0.000001 43.898784 -15.674487 41.219857 -0.000004 0.000009 -10.004999 -20.147581 -25.536573 -35.647427 -0.000001 0.000002 -13.174899 -11.105393 -4.136443 -6.764766 2.240599 0.386800 -2.614098 0.201403 -6.791575 -1.601134 -0.000002 0.000001 -18.592905 5.801535 30.313332 14.122905 -0.000001 -0.000001 -18.765799 5.226768 4.339682 -1.802213 -2.014900 -0.220901 -2.615891 -40.222380 -29.973421 -15.246475 -0.000006 0.000005 -18.633892 98.370399 59.539900 -59.355771 0.000002 0.000001 -18.285101 -25.141020 24.615556 -7.868707
5.244899 7.957703 42.476707 6.216581 -1.973639 -2.247329 -0.204900 1.598098 7.917316 -6.081679 0.943827 0.843618 0.000000 0.000000 3.404110 0.742991 -0.908547 -0.120912 0.000001 -0.000003 7.928605 3.088268 4.792312 1.542873 0.000000 0.000003 2.173902 -0.929611 -0.453684 -0.356496 2.833800 -1.396304 4.843308 -4.354069 5.265522 3.760510 4.363596 0.000005 0.000001 -53.483748 -20.310821 -58.474629 0.000002 0.000006 -10.306899 -161.457394 -121.263889 -143.384864 0.000003 0.000009 -12.404906 -86.699293 162.523969 -83.484706 -2.354800 -1.897204 5.063107 17.861092 7.687785 5.386058 -4.375798 0.000004 -0.000001 43.917570 -15.656091 41.262160 -0.000008 0.000009 -10.004999 -20.082590 -25.574441 -35.613098 -0.000001 -0.000001 -13.174896 -11.202391 -4.146716 -6.774308 2.240599 0.386799 -2.614091 0.230742 -6.868679 -1.592335 -0.000003 0.000001 -18.592905 5.782648 30.345738 14.136808 0.000001 -0.000001 -18.765800 5.204352 4.313189 -1.788990 -2.014899 -0.220901 -2.615891 -40.303628 -30.041429 -15.297932 -0.000004 0.000004 -18.633888 98.475256 59.519348 -59.411854 0.000003 0.000001 -18.285101 -25.140762 24.587390 -7.891378
5.242300 7.965105 42.474308 6.181923 -1.936494 -2.285727 -0.204900 1.598102 7.917307 -6.046660 0.908856 0.880011 -0.000000 -0.000002 3.404106 0.748489 -0.916747 -0.119818 -0.000000 0.000002 7.928601 3.135600 4.836438 1.484161 -0.000001 -0.000001 2.173894 -0.958350 -0.440581 -0.346107 2.833800 -1.396298 4.843305 -4.376350 5.273913 3.761054 4.363596 0.000003 0.000004 -53.490032 -20.281024 -58.464527 0.000009 0.000002 -10.306899 -161.542197 -121.238125 -143.485909 -0.000003 0.000005 -12.404904 -86.599518 162.546358 -83.538719 -2.354800 -1.897199 5.063104 17.876512 7.697131 5.365384 -4.375798 0.000005 0.000005 43.929854 -15.642270 41.301669 -0.000008 0.000008 -10.004993 -19.986433 -25.624365 -35.578787 -0.000000 -0.000001 -13.174888 -11.325213 -4.151774 -6.778684 2.240600 0.386802 -2.614099 0.266308 -6.919771 -1.574375 -0.000001 0.000000 -18.592896 5.762100 30.370310 14.155154 -0.000001 0.000000 -18.765799 5.179042 4.148521 -1.774947 -2.014899 -0.220897 -2.615892 -40.317982 -30.103577 -15.309563 -0.000005 0.000002 -18.633894 98.572464 59.483284 -59.480245 0.000003 0.000002 -18.285099 -25.145326 24.548584 -7.953478
